<svg width="176" height="238" viewBox="0 0 176 238" fill="none" xmlns="http://www.w3.org/2000/svg">
<rect width="176" height="237" transform="translate(0 0.5)" fill="#F5F6FA"/>
<path fill-rule="evenodd" clip-rule="evenodd" d="M93.9301 117.938C78.0795 116.678 66.8396 105.253 54.6931 95.5986C42.1038 85.5917 25.6981 77.3085 23.3826 61.8623C20.9676 45.7524 30.3531 29.5837 43.1525 18.6132C54.7802 8.64696 71.1605 7.56565 86.7906 7.51454C101.118 7.46769 116.155 8.97019 126.443 18.3408C136.398 27.4078 135.567 41.5846 138.302 54.432C141.819 70.9483 154.276 88.6165 144.412 102.735C134.272 117.247 112.174 119.39 93.9301 117.938Z" fill="white"/>
<path d="M116.608 52.8719C116.709 53.585 117.318 54.0995 118.018 54.0995C118.086 54.0995 118.151 54.0962 118.22 54.0864L132.436 52.0904C133.214 51.9797 133.758 51.2601 133.647 50.4819C133.536 49.7037 132.82 49.1632 132.039 49.2706L117.822 51.2666C117.041 51.3708 116.497 52.0937 116.608 52.8719Z" fill="#E01919"/>
<path d="M133.032 75.5541L117.93 66.0788C117.262 65.662 116.383 65.8639 115.966 66.5281C115.55 67.1956 115.751 68.0748 116.416 68.4916L131.518 77.9669C131.752 78.1134 132.013 78.185 132.273 78.185C132.748 78.185 133.211 77.9473 133.481 77.5175C133.901 76.85 133.699 75.9709 133.032 75.5541Z" fill="#E01919"/>
<path d="M126.034 24.5277C125.448 24.0002 124.546 24.0491 124.022 24.6384L112.118 37.9071C111.593 38.4932 111.639 39.3919 112.225 39.9194C112.499 40.1636 112.837 40.2841 113.176 40.2841C113.567 40.2841 113.954 40.1245 114.237 39.8119L126.142 26.54C126.669 25.9539 126.62 25.0552 126.034 24.5277Z" fill="#E01919"/>
<path d="M103.629 47.8672L101.887 35.4646C101.522 32.876 99.2788 30.9256 96.6674 30.9256C96.4232 30.9256 96.1757 30.9419 95.9348 30.9777C93.0564 31.3815 91.0441 34.0547 91.4478 36.9331L91.4771 37.1285C90.0575 38.3333 85.678 41.7457 77.6419 45.513C67.7107 50.166 62.8754 50.6837 62.8331 50.6902C62.8233 50.6902 62.8103 50.6935 62.8005 50.6968C62.7875 50.6968 62.7777 50.6968 62.7647 50.6968L50.3817 52.4355C45.3998 53.1356 41.9157 57.756 42.6191 62.7346L43.0196 65.5935C43.648 70.0576 47.5098 73.4245 52.0065 73.444L56.2166 91.5546C56.5813 93.137 58.0335 94.2832 59.6649 94.2832C59.8244 94.2832 59.9807 94.2734 60.1402 94.2506L64.9039 93.5831C65.7994 93.4561 66.6004 92.9677 67.1018 92.2383C67.6098 91.5024 67.7726 90.6038 67.5675 89.7051L63.4322 71.9332L65.7017 71.6141C65.7115 71.6141 65.7212 71.6076 65.7343 71.6076C65.744 71.6043 65.7538 71.6076 65.7636 71.6043C65.7766 71.601 66.9488 71.3927 69.4267 71.3927C71.7581 71.3927 75.7371 71.5848 81.432 72.4965C90.191 73.8999 95.3389 75.974 97.0418 76.7425L97.0712 76.9378C97.4358 79.5264 99.6793 81.4769 102.294 81.4769C102.538 81.4769 102.782 81.4606 103.027 81.4248C104.417 81.2294 105.651 80.5 106.501 79.3734C107.347 78.2468 107.709 76.8597 107.514 75.4693L105.772 63.07C107.263 62.5751 108.569 61.6471 109.532 60.3642C110.789 58.697 111.32 56.6392 111.03 54.5748C110.506 50.8563 107.354 48.03 103.629 47.8672ZM105.361 60.1818L104.036 50.7619C106.165 51.0875 107.898 52.7872 108.204 54.9753C108.389 56.2875 108.051 57.5965 107.253 58.6547C106.752 59.3255 106.1 59.8432 105.361 60.1818ZM104.222 77.6639C103.831 78.1849 103.264 78.517 102.629 78.6082C101.304 78.8003 100.077 77.8463 99.891 76.5471L99.7868 75.7917L97.2502 57.7495L94.2676 36.5359C94.082 35.2139 95.0068 33.9864 96.3288 33.7975C96.4427 33.7812 96.5534 33.7747 96.6641 33.7747C97.8656 33.7747 98.8978 34.6701 99.0639 35.8619L101.008 49.7036L104.687 75.8698C104.778 76.508 104.612 77.143 104.222 77.6639ZM81.8846 69.6864C77.1632 68.931 72.9726 68.5468 69.43 68.5468C68.2903 68.5468 67.3949 68.5891 66.7241 68.638L64.9007 55.6526L64.5653 53.2821C66.773 52.823 71.4715 51.5499 78.8499 48.0951C85.4501 45.0018 89.6733 42.1494 91.9395 40.4172L96.5795 73.457C93.9257 72.4183 89.0806 70.8391 81.8846 69.6864ZM52.9214 70.5363C52.6284 70.5786 52.3321 70.5982 52.039 70.5982C48.9359 70.5982 46.2724 68.2766 45.8394 65.1995L45.4389 62.3406C44.957 58.9152 47.3535 55.7405 50.7756 55.2586L61.7488 53.7184L63.8978 68.9962L52.9214 70.5363ZM64.7932 90.353C64.816 90.4605 64.803 90.5549 64.7542 90.6265C64.7053 90.6982 64.6207 90.747 64.5067 90.7633L59.743 91.4308C59.4109 91.4731 59.0657 91.2289 58.9908 90.9131L54.8556 73.1412L60.5961 72.3337L64.7932 90.353Z" fill="#E01919"/>
<path d="M87.9365 150.378L85.089 148.743L84.8857 149.065C84.2501 150.056 83.3602 150.552 82.267 150.552C80.3857 150.552 78.9874 149.164 78.9874 147.355C78.9874 145.521 80.4111 144.158 82.267 144.158C83.3857 144.158 84.1992 144.628 84.8857 145.645L85.089 145.967L87.9365 144.331L87.6823 143.984C86.3094 142.051 84.5551 141.134 82.2416 141.134C77.8942 141.134 75.5552 144.356 75.5552 147.38C75.5552 150.403 77.8942 153.625 82.2416 153.625C84.4535 153.625 86.5382 152.535 87.6823 150.75L87.9365 150.378Z" fill="#C01818"/>
<path d="M87.7839 153.575H91.6992L92.8687 150.75H98.7415L99.911 153.575H103.852L96.8348 137.044H93.3263L94.267 139.25L87.7839 153.575ZM95.8432 143.562L97.4195 147.454H94.2161L95.8432 143.562Z" fill="#C01818"/>
<path d="M105.479 153.6H108.911V146.165H111.148V143.042H108.911V141.58C108.911 140.936 109.343 140.266 110.157 140.266C110.589 140.266 110.869 140.341 111.123 140.44L111.504 140.589L112.928 137.54L112.521 137.367C111.886 137.119 110.996 137.02 110.36 137.02C108.809 137.02 107.513 137.515 106.648 138.457C105.886 139.275 105.453 140.415 105.453 141.679V143.017H103.928V146.14H105.453L105.479 153.6Z" fill="#C01818"/>
<path d="M59.3604 136.944V153.575H63.0976V144.058L66.7332 146.685L70.3434 144.058V153.575H74.0807L74.1061 136.944L66.7332 142.372L59.3604 136.944Z" fill="#C01818"/>
<path d="M118.928 141.158C114.606 141.158 112.267 144.355 112.267 147.379C112.267 150.403 114.606 153.6 118.928 153.6C120.911 153.575 122.767 152.708 124.216 151.097L121.42 149.61C120.708 150.329 119.818 150.7 118.852 150.7C117.428 150.7 116.182 149.783 115.852 148.569H125.208V147.751C125.208 143.215 121.521 141.158 118.928 141.158ZM115.928 145.843C116.386 144.702 117.352 144.058 118.598 144.058C119.869 144.058 120.86 144.702 121.369 145.867L115.928 145.843Z" fill="#C01818"/>
<path d="M132.987 141.158C128.665 141.158 126.326 144.355 126.326 147.379C126.326 150.403 128.665 153.6 132.987 153.6C134.97 153.575 136.826 152.708 138.275 151.097L135.479 149.61C134.767 150.329 133.877 150.7 132.911 150.7C131.487 150.7 130.241 149.783 129.911 148.569H139.267V147.751C139.267 143.215 135.606 141.158 132.987 141.158ZM129.987 145.843C130.445 144.702 131.411 144.033 132.657 144.058C133.928 144.058 134.919 144.702 135.428 145.867L129.987 145.843Z" fill="#C01818"/>
<path d="M138.835 140.613H140.284V140.886H139.699V142.373H139.394V140.886H138.835V140.613Z" fill="#C01818"/>
<path d="M140.487 140.613H140.92L141.428 141.976L141.911 140.613H142.343V142.373H142.038V141.01L141.53 142.373H141.275L140.767 141.01V142.373H140.462V140.613H140.487Z" fill="#C01818"/>
<path d="M33.657 136.92L42.9112 141.084V145.148L37.4705 142.695V151.122L42.9112 153.575L42.8953 157.64L33.657 153.476V136.92Z" fill="#C01818"/>
<path d="M52.1494 136.92L42.8952 141.084V145.148L48.3359 142.695V151.122L42.8952 153.575V157.64L52.1494 153.476V136.92Z" fill="#75160D"/>
<path d="M42.7461 182.681L41.9902 186.243H40.9941L42.8047 177.677H44.6797C46.4219 177.677 47.293 178.392 47.293 179.821C47.293 181.181 46.5742 182.058 45.1367 182.452L46.5371 186.243H45.4473L44.2227 182.681H42.7461ZM43.6074 178.55C43.209 180.479 42.9824 181.571 42.9277 181.825H43.9121C44.666 181.825 45.2461 181.659 45.6523 181.327C46.0586 180.995 46.2617 180.519 46.2617 179.897C46.2617 179.425 46.1289 179.083 45.8633 178.872C45.6016 178.657 45.1738 178.55 44.5801 178.55H43.6074ZM50.2051 186.36C49.4863 186.36 48.9219 186.147 48.5117 185.722C48.1016 185.296 47.8965 184.706 47.8965 183.952C47.8965 183.218 48.041 182.515 48.3301 181.843C48.623 181.167 49.0098 180.642 49.4902 180.267C49.9707 179.892 50.5 179.704 51.0781 179.704C51.6758 179.704 52.125 179.835 52.4258 180.097C52.7266 180.354 52.877 180.716 52.877 181.181C52.877 181.884 52.5527 182.437 51.9043 182.839C51.2559 183.237 50.3281 183.437 49.1211 183.437H48.9277L48.9043 183.905C48.9043 184.417 49.0234 184.817 49.2617 185.106C49.5039 185.392 49.877 185.534 50.3809 185.534C50.627 185.534 50.8789 185.499 51.1367 185.429C51.3984 185.358 51.7227 185.229 52.1094 185.042V185.897C51.7422 186.069 51.418 186.188 51.1367 186.255C50.8555 186.325 50.5449 186.36 50.2051 186.36ZM51.0195 180.542C50.6172 180.542 50.2383 180.726 49.8828 181.093C49.5312 181.46 49.2617 181.97 49.0742 182.622H49.1445C50.0352 182.622 50.7168 182.507 51.1895 182.276C51.666 182.042 51.9043 181.704 51.9043 181.263C51.9043 181.056 51.832 180.884 51.6875 180.747C51.5469 180.61 51.3242 180.542 51.0195 180.542ZM56.2051 186.36C55.4473 186.36 54.8594 186.151 54.4414 185.733C54.0234 185.315 53.8145 184.726 53.8145 183.964C53.8145 183.183 53.959 182.462 54.248 181.802C54.5371 181.142 54.9355 180.628 55.4434 180.261C55.9551 179.89 56.5293 179.704 57.166 179.704C57.7012 179.704 58.2246 179.804 58.7363 180.003L58.4609 180.829C57.9922 180.63 57.5645 180.53 57.1777 180.53C56.7402 180.53 56.3398 180.681 55.9766 180.981C55.6172 181.278 55.334 181.694 55.127 182.229C54.9238 182.761 54.8223 183.339 54.8223 183.964C54.8223 184.464 54.9512 184.853 55.209 185.13C55.4707 185.407 55.8301 185.546 56.2871 185.546C56.5684 185.546 56.834 185.507 57.084 185.429C57.334 185.351 57.5801 185.259 57.8223 185.153V185.991C57.3379 186.237 56.7988 186.36 56.2051 186.36ZM62.4102 179.739C63.1523 179.739 63.7383 179.96 64.168 180.401C64.5977 180.839 64.8125 181.442 64.8125 182.212C64.8125 182.946 64.6719 183.64 64.3906 184.292C64.1094 184.944 63.7285 185.448 63.248 185.804C62.7676 186.159 62.2246 186.337 61.6191 186.337C60.8691 186.337 60.2812 186.116 59.8555 185.675C59.4297 185.233 59.2168 184.63 59.2168 183.864C59.2168 183.122 59.3594 182.425 59.6445 181.772C59.9297 181.116 60.3145 180.614 60.7988 180.267C61.2832 179.915 61.8203 179.739 62.4102 179.739ZM63.793 182.077C63.793 181.628 63.6699 181.265 63.4238 180.987C63.1816 180.706 62.8516 180.565 62.4336 180.565C62.0078 180.565 61.625 180.71 61.2852 180.999C60.9492 181.288 60.6875 181.69 60.5 182.206C60.3164 182.718 60.2246 183.288 60.2246 183.917C60.2246 184.429 60.3477 184.825 60.5938 185.106C60.8438 185.384 61.2012 185.522 61.666 185.522C62.0723 185.522 62.4375 185.38 62.7617 185.095C63.0859 184.81 63.3379 184.405 63.5176 183.882C63.7012 183.354 63.793 182.753 63.793 182.077ZM69.459 186.243L70.3262 182.188C70.3965 181.821 70.4316 181.558 70.4316 181.397C70.4316 181.124 70.3711 180.911 70.25 180.759C70.1289 180.606 69.9219 180.53 69.6289 180.53C69.3008 180.53 68.9805 180.647 68.668 180.882C68.3594 181.116 68.0859 181.452 67.8477 181.89C67.6133 182.323 67.4316 182.847 67.3027 183.46L66.7109 186.243H65.7266L67.0977 179.821H67.9121L67.7832 181.011H67.8418C68.1816 180.546 68.5195 180.212 68.8555 180.009C69.1953 179.806 69.5449 179.704 69.9043 179.704C70.3457 179.704 70.6855 179.831 70.9238 180.085C71.1621 180.339 71.3027 180.692 71.3457 181.146H71.3926C71.7285 180.657 72.0859 180.296 72.4648 180.062C72.8438 179.823 73.2266 179.704 73.6133 179.704C74.1094 179.704 74.4922 179.837 74.7617 180.103C75.0352 180.368 75.1719 180.755 75.1719 181.263C75.1719 181.528 75.1289 181.876 75.043 182.306L74.1992 186.243H73.2031L74.0703 182.188C74.1484 181.782 74.1875 181.497 74.1875 181.333C74.1875 181.091 74.1191 180.897 73.9824 180.753C73.8496 180.604 73.6387 180.53 73.3496 180.53C73.0332 180.53 72.7207 180.644 72.4121 180.87C72.1035 181.097 71.832 181.419 71.5977 181.837C71.3672 182.251 71.1914 182.743 71.0703 183.313L70.4434 186.243H69.459ZM79.9238 186.243L80.791 182.188C80.8613 181.821 80.8965 181.558 80.8965 181.397C80.8965 181.124 80.8359 180.911 80.7148 180.759C80.5938 180.606 80.3867 180.53 80.0938 180.53C79.7656 180.53 79.4453 180.647 79.1328 180.882C78.8242 181.116 78.5508 181.452 78.3125 181.89C78.0781 182.323 77.8965 182.847 77.7676 183.46L77.1758 186.243H76.1914L77.5625 179.821H78.377L78.248 181.011H78.3066C78.6465 180.546 78.9844 180.212 79.3203 180.009C79.6602 179.806 80.0098 179.704 80.3691 179.704C80.8105 179.704 81.1504 179.831 81.3887 180.085C81.627 180.339 81.7676 180.692 81.8105 181.146H81.8574C82.1934 180.657 82.5508 180.296 82.9297 180.062C83.3086 179.823 83.6914 179.704 84.0781 179.704C84.5742 179.704 84.957 179.837 85.2266 180.103C85.5 180.368 85.6367 180.755 85.6367 181.263C85.6367 181.528 85.5938 181.876 85.5078 182.306L84.6641 186.243H83.668L84.5352 182.188C84.6133 181.782 84.6523 181.497 84.6523 181.333C84.6523 181.091 84.584 180.897 84.4473 180.753C84.3145 180.604 84.1035 180.53 83.8145 180.53C83.498 180.53 83.1855 180.644 82.877 180.87C82.5684 181.097 82.2969 181.419 82.0625 181.837C81.832 182.251 81.6562 182.743 81.5352 183.313L80.9082 186.243H79.9238ZM89.1934 186.36C88.4746 186.36 87.9102 186.147 87.5 185.722C87.0898 185.296 86.8848 184.706 86.8848 183.952C86.8848 183.218 87.0293 182.515 87.3184 181.843C87.6113 181.167 87.998 180.642 88.4785 180.267C88.959 179.892 89.4883 179.704 90.0664 179.704C90.6641 179.704 91.1133 179.835 91.4141 180.097C91.7148 180.354 91.8652 180.716 91.8652 181.181C91.8652 181.884 91.541 182.437 90.8926 182.839C90.2441 183.237 89.3164 183.437 88.1094 183.437H87.916L87.8926 183.905C87.8926 184.417 88.0117 184.817 88.25 185.106C88.4922 185.392 88.8652 185.534 89.3691 185.534C89.6152 185.534 89.8672 185.499 90.125 185.429C90.3867 185.358 90.7109 185.229 91.0977 185.042V185.897C90.7305 186.069 90.4062 186.188 90.125 186.255C89.8438 186.325 89.5332 186.36 89.1934 186.36ZM90.0078 180.542C89.6055 180.542 89.2266 180.726 88.8711 181.093C88.5195 181.46 88.25 181.97 88.0625 182.622H88.1328C89.0234 182.622 89.7051 182.507 90.1777 182.276C90.6543 182.042 90.8926 181.704 90.8926 181.263C90.8926 181.056 90.8203 180.884 90.6758 180.747C90.5352 180.61 90.3125 180.542 90.0078 180.542ZM96.5 186.243L97.3672 182.188C97.4453 181.782 97.4844 181.501 97.4844 181.345C97.4844 181.099 97.4141 180.901 97.2734 180.753C97.1367 180.604 96.916 180.53 96.6113 180.53C96.2637 180.53 95.9238 180.647 95.5918 180.882C95.2637 181.116 94.9727 181.45 94.7188 181.884C94.4688 182.317 94.2793 182.843 94.1504 183.46L93.5586 186.243H92.5742L93.9453 179.821H94.7598L94.6309 181.011H94.6895C95.0645 180.534 95.4258 180.198 95.7734 180.003C96.125 179.804 96.4883 179.704 96.8633 179.704C97.3594 179.704 97.75 179.841 98.0352 180.114C98.3242 180.384 98.4688 180.763 98.4688 181.251C98.4688 181.56 98.4238 181.911 98.334 182.306L97.4961 186.243H96.5ZM102.898 179.716C103.656 179.716 104.205 180.087 104.545 180.829H104.604C104.67 180.224 104.758 179.688 104.867 179.224L105.324 177.126H106.297L104.363 186.243H103.549L103.678 185.019H103.631C103.236 185.507 102.867 185.853 102.523 186.056C102.18 186.259 101.824 186.36 101.457 186.36C100.914 186.36 100.49 186.169 100.186 185.786C99.8809 185.403 99.7285 184.872 99.7285 184.192C99.7285 183.356 99.8691 182.591 100.15 181.896C100.432 181.2 100.811 180.663 101.287 180.284C101.768 179.905 102.305 179.716 102.898 179.716ZM101.785 185.546C102.152 185.546 102.531 185.364 102.922 185.001C103.312 184.634 103.621 184.167 103.848 183.601C104.078 183.03 104.193 182.45 104.193 181.86C104.193 181.427 104.088 181.097 103.877 180.87C103.666 180.644 103.359 180.53 102.957 180.53C102.562 180.53 102.195 180.692 101.855 181.017C101.52 181.337 101.248 181.79 101.041 182.376C100.838 182.958 100.736 183.571 100.736 184.216C100.736 185.103 101.086 185.546 101.785 185.546ZM108.963 186.36C108.244 186.36 107.68 186.147 107.27 185.722C106.859 185.296 106.654 184.706 106.654 183.952C106.654 183.218 106.799 182.515 107.088 181.843C107.381 181.167 107.768 180.642 108.248 180.267C108.729 179.892 109.258 179.704 109.836 179.704C110.434 179.704 110.883 179.835 111.184 180.097C111.484 180.354 111.635 180.716 111.635 181.181C111.635 181.884 111.311 182.437 110.662 182.839C110.014 183.237 109.086 183.437 107.879 183.437H107.686L107.662 183.905C107.662 184.417 107.781 184.817 108.02 185.106C108.262 185.392 108.635 185.534 109.139 185.534C109.385 185.534 109.637 185.499 109.895 185.429C110.156 185.358 110.48 185.229 110.867 185.042V185.897C110.5 186.069 110.176 186.188 109.895 186.255C109.613 186.325 109.303 186.36 108.963 186.36ZM109.777 180.542C109.375 180.542 108.996 180.726 108.641 181.093C108.289 181.46 108.02 181.97 107.832 182.622H107.902C108.793 182.622 109.475 182.507 109.947 182.276C110.424 182.042 110.662 181.704 110.662 181.263C110.662 181.056 110.59 180.884 110.445 180.747C110.305 180.61 110.082 180.542 109.777 180.542ZM115.742 179.716C116.5 179.716 117.049 180.087 117.389 180.829H117.447C117.514 180.224 117.602 179.688 117.711 179.224L118.168 177.126H119.141L117.207 186.243H116.393L116.521 185.019H116.475C116.08 185.507 115.711 185.853 115.367 186.056C115.023 186.259 114.668 186.36 114.301 186.36C113.758 186.36 113.334 186.169 113.029 185.786C112.725 185.403 112.572 184.872 112.572 184.192C112.572 183.356 112.713 182.591 112.994 181.896C113.275 181.2 113.654 180.663 114.131 180.284C114.611 179.905 115.148 179.716 115.742 179.716ZM114.629 185.546C114.996 185.546 115.375 185.364 115.766 185.001C116.156 184.634 116.465 184.167 116.691 183.601C116.922 183.03 117.037 182.45 117.037 181.86C117.037 181.427 116.932 181.097 116.721 180.87C116.51 180.644 116.203 180.53 115.801 180.53C115.406 180.53 115.039 180.692 114.699 181.017C114.363 181.337 114.092 181.79 113.885 182.376C113.682 182.958 113.58 183.571 113.58 184.216C113.58 185.103 113.93 185.546 114.629 185.546ZM125.234 186.36C124.855 186.36 124.521 186.261 124.232 186.062C123.947 185.862 123.732 185.591 123.588 185.247H123.529L123.119 186.243H122.387L124.32 177.126H125.305C125.105 178.071 124.951 178.796 124.842 179.3C124.736 179.8 124.59 180.386 124.402 181.058H124.455C124.818 180.597 125.176 180.259 125.527 180.044C125.883 179.825 126.248 179.716 126.623 179.716C127.174 179.716 127.604 179.909 127.912 180.296C128.221 180.683 128.375 181.214 128.375 181.89C128.375 182.706 128.24 183.462 127.971 184.157C127.705 184.849 127.332 185.39 126.852 185.78C126.375 186.167 125.836 186.36 125.234 186.36ZM126.324 180.53C125.949 180.53 125.566 180.716 125.176 181.087C124.789 181.458 124.48 181.925 124.25 182.487C124.023 183.05 123.91 183.626 123.91 184.216C123.91 184.646 124.018 184.976 124.232 185.206C124.451 185.433 124.766 185.546 125.176 185.546C125.562 185.546 125.922 185.388 126.254 185.071C126.59 184.755 126.859 184.306 127.062 183.724C127.266 183.138 127.367 182.517 127.367 181.86C127.367 180.974 127.02 180.53 126.324 180.53ZM129.541 179.821H130.525L130.959 183.015C130.998 183.284 131.035 183.683 131.07 184.21C131.109 184.733 131.129 185.155 131.129 185.476H131.164C131.301 185.136 131.471 184.745 131.674 184.304C131.877 183.862 132.027 183.558 132.125 183.39L134.029 179.821H135.072L130.994 187.333C130.631 188.005 130.271 188.472 129.916 188.733C129.561 188.995 129.133 189.126 128.633 189.126C128.352 189.126 128.078 189.085 127.812 189.003V188.212C128.059 188.282 128.314 188.317 128.58 188.317C128.9 188.317 129.174 188.218 129.4 188.019C129.631 187.823 129.854 187.532 130.068 187.146L130.514 186.349L129.541 179.821Z" fill="#53565A"/>
<path d="M88 223C87.8608 223 87.7223 222.997 87.584 222.993L90.4451 215.13H94.3826C95.0737 215.13 95.8324 214.599 96.0687 213.95L99.1728 205.424C99.6807 204.028 98.8811 202.886 97.3957 202.886H91.9332L87.3498 215.48H87.3482L84.7498 222.62C78.5853 221.154 74 215.613 74 209C74 202.578 78.3245 197.166 84.2202 195.517L81.5391 202.886H81.5384L77.0812 215.13L80.0483 215.131L83.8388 204.726H86.0686L82.2782 215.131L85.2442 215.131L88.7765 205.424C89.2846 204.028 88.485 202.886 87.001 202.886H84.5069L87.3708 195.015C87.5795 195.005 87.7891 195 88 195C95.732 195 102 201.268 102 209C102 216.732 95.732 223 88 223ZM96.4708 204.718H94.2415L91.1195 213.284H93.3489L96.4708 204.718Z" fill="#4987CE"/>
</svg>
